<svg width="512" height="512" viewBox="0 0 512 512" fill="none" xmlns="http://www.w3.org/2000/svg">
<g filter="url(#filter0_d_360_3792)">
<path d="M201.142 378.287C168.844 378.287 143.586 371.203 125.366 357.034C107.147 342.866 97.4851 322.941 96.3809 297.26H155.18C156.284 304.935 160.563 311.872 168.016 318.07C175.746 323.974 187.202 326.926 202.385 326.926C213.979 326.926 223.503 324.86 230.956 320.727C238.685 316.299 242.55 310.101 242.55 302.131C242.55 295.046 239.652 289.438 233.855 285.305C228.058 280.878 217.706 277.778 202.799 276.007L184.993 274.236C157.664 271.284 137.098 263.167 123.296 249.884C109.769 236.601 103.006 219.628 103.006 198.965C103.006 181.845 107.009 167.529 115.014 156.017C123.02 144.505 134.062 135.797 148.141 129.893C162.495 123.99 178.782 121.038 197.002 121.038C226.263 121.038 249.866 127.975 267.809 141.848C285.752 155.426 295.138 175.204 295.966 201.179H237.167C236.063 193.209 232.198 186.568 225.573 181.255C218.948 175.646 209.148 172.842 196.174 172.842C185.96 172.842 177.816 174.908 171.743 179.041C165.67 183.173 162.633 188.782 162.633 195.866C162.633 202.655 165.256 207.821 170.501 211.363C175.746 214.905 184.303 217.414 196.174 218.89L213.979 220.661C241.86 223.908 263.53 232.173 278.989 245.456C294.448 258.739 302.177 276.598 302.177 299.031C302.177 315.266 298.037 329.435 289.755 341.537C281.474 353.344 269.741 362.495 254.558 368.989C239.376 375.188 221.57 378.287 201.142 378.287Z" fill="white"/>
<path d="M331.515 370.76V291.504H404.393V370.76H331.515Z" fill="white"/>
<path fill-rule="evenodd" clip-rule="evenodd" d="M95 292.344H171.053L172.294 300.912C172.906 305.134 175.313 309.772 181.216 314.692C186.528 318.644 195.455 321.357 209.388 321.357C219.799 321.357 227.527 319.509 233.095 316.46C238.227 313.525 239.437 310.538 239.437 307.211C239.437 303.864 238.335 301.447 235.109 299.163L234.981 299.073L234.857 298.978C231.286 296.271 223.261 293.425 208.828 291.715L191.337 289.988L191.3 289.984C163.285 286.979 140.778 278.592 125.112 263.625L125.076 263.591L125.041 263.556C109.641 248.542 101.974 229.187 101.974 206.316C101.974 187.833 106.354 171.603 115.683 158.284C124.763 145.321 137.168 135.732 152.478 129.358L152.507 129.346L152.536 129.334C167.948 123.041 185.181 120 204.085 120C234.255 120 259.631 127.1 279.375 142.239C299.732 157.552 310.182 179.98 311.086 208.137L311.421 218.585H235.44L234.237 209.962C233.555 205.074 231.259 200.852 226.52 197.079L226.42 196.999L226.323 196.917C222.168 193.426 214.994 190.872 203.27 190.872C194.295 190.872 188.256 192.691 184.313 195.355C180.792 197.733 179.747 200.154 179.747 203.285C179.747 206.557 180.734 208.338 183.062 209.898C186.347 212.101 192.974 214.351 204.262 215.753L221.765 217.482L221.84 217.49C250.396 220.792 273.696 229.308 290.812 243.908C308.434 258.941 317.21 279.383 317.21 304.18C317.21 322.016 312.588 338.004 303.136 351.717L303.103 351.765L303.069 351.813C293.684 365.097 280.593 375.069 264.318 381.979L264.249 382.009L264.179 382.038C247.9 388.636 229.162 391.796 208.164 391.796C175.177 391.796 148.064 384.63 127.92 369.078C107.459 353.281 96.668 330.857 95.4577 302.912L95 292.344ZM203.27 225.803C191.576 224.359 183.146 221.905 177.98 218.441C172.813 214.977 170.23 209.925 170.23 203.285C170.23 196.357 173.221 190.872 179.203 186.83C185.186 182.789 193.208 180.768 203.27 180.768C216.05 180.768 225.704 183.51 232.231 188.995C238.757 194.192 242.564 200.687 243.652 208.482H301.574C301.462 205 301.192 201.632 300.763 198.378C298.065 177.889 289.09 161.916 273.836 150.456C256.161 136.888 232.91 130.104 204.085 130.104C186.138 130.104 170.094 132.991 155.953 138.764C142.084 144.538 131.207 153.054 123.321 164.313C115.435 175.572 111.492 189.573 111.492 206.316C111.492 226.524 118.154 243.124 131.479 256.114C145.076 269.105 165.335 277.044 192.256 279.931L209.796 281.663C224.48 283.395 234.678 286.426 240.389 290.756C246.099 294.798 248.954 300.283 248.954 307.211C248.954 315.006 245.147 321.068 237.533 325.398C230.191 329.44 220.809 331.461 209.388 331.461C194.432 331.461 183.146 328.574 175.532 322.8C168.19 316.738 163.975 309.954 162.887 302.448H104.965C105.116 305.924 105.428 309.292 105.901 312.552C108.849 332.849 118.055 348.967 133.518 360.907C151.466 374.763 176.348 381.692 208.164 381.692C228.287 381.692 245.827 378.661 260.784 372.598C275.74 366.247 287.297 357.298 295.455 345.751C303.613 333.915 307.692 320.058 307.692 304.18C307.692 282.24 300.078 264.775 284.85 251.784C269.621 238.793 248.275 230.71 220.809 227.535L203.27 225.803ZM327.075 384.434V286.715H417.901V384.434H327.075ZM336.593 374.33H408.383V296.819H336.593V374.33Z" fill="white"/>
</g>
<defs>
<filter id="filter0_d_360_3792" x="91" y="120" width="330.901" height="279.796" filterUnits="userSpaceOnUse" color-interpolation-filters="sRGB">
<feFlood flood-opacity="0" result="BackgroundImageFix"/>
<feColorMatrix in="SourceAlpha" type="matrix" values="0 0 0 0 0 0 0 0 0 0 0 0 0 0 0 0 0 0 127 0" result="hardAlpha"/>
<feOffset dy="4"/>
<feGaussianBlur stdDeviation="2"/>
<feComposite in2="hardAlpha" operator="out"/>
<feColorMatrix type="matrix" values="0 0 0 0 0 0 0 0 0 0 0 0 0 0 0 0 0 0 0.25 0"/>
<feBlend mode="normal" in2="BackgroundImageFix" result="effect1_dropShadow_360_3792"/>
<feBlend mode="normal" in="SourceGraphic" in2="effect1_dropShadow_360_3792" result="shape"/>
</filter>
</defs>
</svg>
