<svg width="240" height="37" viewBox="0 0 240 37" fill="none" xmlns="http://www.w3.org/2000/svg">
<path d="M10.8583 33.8625C7.51071 33.8625 4.89269 33.1732 3.00428 31.7946C1.11588 30.416 0.114449 28.4773 0 25.9785H6.0944C6.20885 26.7253 6.65234 27.4002 7.42487 28.0034C8.22602 28.5778 9.41342 28.865 10.9871 28.865C12.1888 28.865 13.1759 28.6639 13.9485 28.2618C14.7496 27.831 15.1502 27.2279 15.1502 26.4524C15.1502 25.7631 14.8497 25.2174 14.2489 24.8153C13.648 24.3845 12.5751 24.0829 11.03 23.9106L9.18453 23.7382C6.35191 23.451 4.2203 22.6612 2.78969 21.3687C1.38769 20.0763 0.686693 18.4248 0.686693 16.4143C0.686693 14.7484 1.10157 13.3554 1.93133 12.2353C2.76108 11.1152 3.90557 10.2679 5.36479 9.69347C6.85263 9.11904 8.54075 8.83183 10.4292 8.83183C13.4621 8.83183 15.9084 9.50678 17.7682 10.8567C19.628 12.1779 20.6008 14.1022 20.6866 16.6297H14.5922C14.4778 15.8542 14.0772 15.208 13.3905 14.691C12.7038 14.1453 11.6881 13.8724 10.3433 13.8724C9.28467 13.8724 8.44061 14.0735 7.81114 14.4756C7.18167 14.8777 6.86693 15.4234 6.86693 16.1127C6.86693 16.7733 7.13875 17.2759 7.68238 17.6206C8.22602 17.9652 9.11299 18.2094 10.3433 18.353L12.1888 18.5253C15.0786 18.8412 17.3247 19.6454 18.927 20.9379C20.5293 22.2304 21.3304 23.968 21.3304 26.1508C21.3304 27.7305 20.9012 29.1091 20.0429 30.2867C19.1845 31.4356 17.9685 32.3259 16.3948 32.9578C14.8211 33.5609 12.9756 33.8625 10.8583 33.8625Z" fill="white"/>
<path d="M25.7795 33.1301V1.6802H32.6464V19.8178H31.6164C31.6164 17.4339 31.9168 15.4234 32.5177 13.7863C33.1185 12.1491 34.0055 10.9141 35.1786 10.0812C36.3517 9.21957 37.8253 8.78875 39.5992 8.78875H39.8996C42.5034 8.78875 44.4919 9.72219 45.8653 11.5891C47.2387 13.4272 47.9254 16.1271 47.9254 19.6885V33.1301H41.0584V19.2577C41.0584 17.9652 40.6722 16.9313 39.8996 16.1558C39.1557 15.3516 38.1686 14.9495 36.9383 14.9495C35.6507 14.9495 34.6064 15.3659 33.8052 16.1989C33.0327 17.0318 32.6464 18.1376 32.6464 19.5162V33.1301H25.7795Z" fill="white"/>
<path d="M54.8929 33.1301V9.52114H61.7598V33.1301H54.8929ZM51.7599 14.6048V9.52114H61.7598V14.6048H51.7599ZM57.5538 7.19471C56.2663 7.19471 55.3078 6.86441 54.6783 6.20382C54.0774 5.51451 53.777 4.65286 53.777 3.61889C53.777 2.5562 54.0774 1.69456 54.6783 1.03397C55.3078 0.344656 56.2663 0 57.5538 0C58.8414 0 59.7856 0.344656 60.3864 1.03397C61.0159 1.69456 61.3306 2.5562 61.3306 3.61889C61.3306 4.65286 61.0159 5.51451 60.3864 6.20382C59.7856 6.86441 58.8414 7.19471 57.5538 7.19471Z" fill="white"/>
<path d="M82.5745 33.9056C80.6575 33.9056 78.9694 33.5035 77.5102 32.6993C76.051 31.8664 74.9065 30.6744 74.0767 29.1235C73.247 27.5725 72.8035 25.6769 72.7462 23.4367H73.5617V33.1301H68.1111V1.6802H74.978V17.6637L73.3471 19.7316C73.4329 17.3477 73.8764 15.3516 74.6776 13.7432C75.5073 12.1061 76.6375 10.8854 78.0681 10.0812C79.4987 9.24829 81.1296 8.83183 82.9608 8.83183C84.5631 8.83183 86.008 9.1334 87.2956 9.73655C88.6117 10.311 89.7276 11.1439 90.6432 12.2353C91.5588 13.298 92.2598 14.5617 92.7462 16.0265C93.2612 17.4913 93.5187 19.0854 93.5187 20.8086V21.7565C93.5187 23.4797 93.2612 25.0738 92.7462 26.5386C92.2598 28.0034 91.5302 29.2958 90.5574 30.416C89.6132 31.5074 88.4687 32.369 87.1239 33.0009C85.7791 33.604 84.2627 33.9056 82.5745 33.9056ZM80.772 28.1326C81.9451 28.1326 82.9608 27.8454 83.8192 27.271C84.7062 26.6965 85.3928 25.8923 85.8793 24.8584C86.3657 23.7957 86.6089 22.6037 86.6089 21.2825C86.6089 19.9326 86.3657 18.7551 85.8793 17.7498C85.3928 16.7446 84.7062 15.9691 83.8192 15.4234C82.9608 14.849 81.9451 14.5617 80.772 14.5617C79.7419 14.5617 78.7691 14.8059 77.8535 15.2941C76.9379 15.7824 76.194 16.4861 75.6218 17.4052C75.0781 18.2955 74.8063 19.3869 74.8063 20.6794V22.2734C74.8063 23.5085 75.0925 24.5711 75.6647 25.4615C76.2655 26.3232 77.0238 26.9837 77.9394 27.4433C78.8549 27.9028 79.7992 28.1326 80.772 28.1326Z" fill="white"/>
<path d="M106.228 33.8625C103.51 33.8625 101.421 32.9865 99.9618 31.2345C98.5026 29.4538 97.773 26.7827 97.773 23.2212V9.52114H104.64V23.5659C104.64 24.8296 104.998 25.8349 105.713 26.5816C106.428 27.3284 107.387 27.7018 108.588 27.7018C109.819 27.7018 110.82 27.314 111.593 26.5386C112.365 25.7631 112.752 24.7148 112.752 23.3936V9.52114H119.618V33.1301H114.168V23.1782H114.64C114.64 25.562 114.325 27.5582 113.696 29.1666C113.095 30.7462 112.194 31.9238 110.992 32.6993C109.79 33.4748 108.302 33.8625 106.528 33.8625H106.228Z" fill="white"/>
<path d="M127.066 33.1301V9.52114H133.933V33.1301H127.066ZM123.933 14.6048V9.52114H133.933V14.6048H123.933ZM129.727 7.19471C128.439 7.19471 127.481 6.86441 126.852 6.20382C126.251 5.51451 125.95 4.65286 125.95 3.61889C125.95 2.5562 126.251 1.69456 126.852 1.03397C127.481 0.344656 128.439 0 129.727 0C131.015 0 131.959 0.344656 132.56 1.03397C133.189 1.69456 133.504 2.5562 133.504 3.61889C133.504 4.65286 133.189 5.51451 132.56 6.20382C131.959 6.86441 131.015 7.19471 129.727 7.19471Z" fill="white"/>
<path d="M146.851 33.3025V26.7109H152.688C154.147 26.7109 155.463 26.4955 156.636 26.0647C157.809 25.6051 158.811 24.9732 159.64 24.169C160.47 23.3361 161.1 22.3452 161.529 21.1964C161.958 20.0188 162.173 18.7263 162.173 17.319C162.173 15.8542 161.958 14.5474 161.529 13.3985C161.1 12.2497 160.47 11.2731 159.64 10.4689C158.811 9.66475 157.809 9.0616 156.636 8.6595C155.463 8.22868 154.147 8.01327 152.688 8.01327H146.851V1.42171H152.301C155.134 1.42171 157.609 1.83817 159.726 2.67109C161.844 3.50401 163.618 4.6385 165.048 6.07457C166.479 7.51064 167.537 9.16212 168.224 11.029C168.939 12.8672 169.297 14.8059 169.297 16.8451V17.7929C169.297 19.6885 168.939 21.5698 168.224 23.4367C167.537 25.2748 166.479 26.9407 165.048 28.4342C163.618 29.899 161.844 31.0765 159.726 31.9669C157.609 32.8573 155.134 33.3025 152.301 33.3025H146.851ZM140.671 33.3025V1.42171H147.709V33.3025H140.671Z" fill="white"/>
<path d="M169.898 33.1301L180.241 1.6802H191.615L202.344 33.1301H195.048L186.379 6.54848L188.61 7.4532H183.074L185.391 6.54848L176.937 33.1301H169.898ZM177.752 25.3323L179.898 19.4731H192.173L194.361 25.3323H177.752Z" fill="white"/>
<path d="M220.111 33.9487C217.279 33.9487 214.804 33.4604 212.687 32.4839C210.598 31.4786 208.867 30.1718 207.493 28.5634C206.12 26.9263 205.09 25.1599 204.403 23.2643C203.745 21.3687 203.416 19.5449 203.416 17.7929V16.8451C203.416 14.892 203.76 12.9677 204.446 11.0721C205.161 9.14776 206.22 7.41012 207.622 5.85916C209.024 4.30821 210.77 3.07319 212.858 2.1541C214.947 1.2063 217.365 0.732396 220.111 0.732396C222.858 0.732396 225.276 1.2063 227.365 2.1541C229.453 3.07319 231.199 4.30821 232.601 5.85916C234.003 7.41012 235.061 9.14776 235.777 11.0721C236.492 12.9677 236.85 14.892 236.85 16.8451V17.7929C236.85 19.5449 236.506 21.3687 235.82 23.2643C235.133 25.1599 234.103 26.9263 232.729 28.5634C231.356 30.1718 229.611 31.4786 227.493 32.4839C225.405 33.4604 222.944 33.9487 220.111 33.9487ZM220.111 27.3571C221.599 27.3571 222.93 27.0986 224.103 26.5816C225.305 26.0647 226.32 25.3466 227.15 24.4275C228.008 23.5085 228.652 22.4458 229.081 21.2395C229.511 20.0332 229.725 18.7407 229.725 17.3621C229.725 15.8973 229.496 14.5617 229.038 13.3554C228.609 12.1204 227.965 11.0577 227.107 10.1674C226.277 9.24829 225.276 8.54461 224.103 8.05635C222.93 7.56809 221.599 7.32395 220.111 7.32395C218.624 7.32395 217.293 7.56809 216.12 8.05635C214.947 8.54461 213.931 9.24829 213.073 10.1674C212.243 11.0577 211.614 12.1204 211.184 13.3554C210.755 14.5617 210.541 15.8973 210.541 17.3621C210.541 18.7407 210.755 20.0332 211.184 21.2395C211.614 22.4458 212.243 23.5085 213.073 24.4275C213.931 25.3466 214.947 26.0647 216.12 26.5816C217.293 27.0986 218.624 27.3571 220.111 27.3571Z" fill="white"/>
<path fill-rule="evenodd" clip-rule="evenodd" d="M0.382812 26.4092H8.38489L8.51553 27.2616C8.57992 27.6817 8.83319 28.1431 9.4542 28.6326C10.0132 29.0258 10.9524 29.2957 12.4184 29.2957C13.5138 29.2957 14.327 29.1118 14.9128 28.8085C15.4528 28.5164 15.5801 28.2193 15.5801 27.8883C15.5801 27.5553 15.4642 27.3148 15.1247 27.0876L15.1113 27.0786L15.0982 27.0692C14.7224 26.7998 13.8781 26.5166 12.3595 26.3465L10.5192 26.1747L10.5152 26.1743C7.56759 25.8754 5.19941 25.0409 3.55111 23.5518L3.54737 23.5484L3.54366 23.545C1.9233 22.0513 1.11661 20.1256 1.11661 17.8502C1.11661 16.0113 1.57744 14.3965 2.55906 13.0714C3.51438 11.7817 4.81965 10.8276 6.43053 10.1935L6.43358 10.1923L6.43664 10.1911C8.05825 9.56506 9.87139 9.26249 11.8605 9.26249C15.0348 9.26249 17.7049 9.96883 19.7822 11.475C21.9242 12.9986 23.0237 15.2299 23.1188 18.0313L23.1541 19.0708H15.1596L15.033 18.2129C14.9612 17.7266 14.7196 17.3065 14.221 16.9311L14.2105 16.9232L14.2003 16.9151C13.7632 16.5677 13.0083 16.3136 11.7747 16.3136C10.8304 16.3136 10.1949 16.4946 9.78012 16.7596C9.40966 16.9962 9.29971 17.2371 9.29971 17.5486C9.29971 17.8741 9.40356 18.0513 9.64848 18.2066C9.99413 18.4257 10.6914 18.6495 11.8791 18.789L13.7207 18.961L13.7286 18.9619C16.7332 19.2904 19.1848 20.1376 20.9856 21.5902C22.8398 23.0859 23.7632 25.1196 23.7632 27.5867C23.7632 29.3612 23.2769 30.9519 22.2824 32.3162L22.2789 32.321L22.2754 32.3258C21.2879 33.6474 19.9105 34.6395 18.1981 35.3271L18.1907 35.33L18.1834 35.3328C16.4705 35.9893 14.499 36.3037 12.2897 36.3037C8.81886 36.3037 5.96603 35.5907 3.84661 34.0435C1.69377 32.4718 0.558311 30.2408 0.43097 27.4606L0.382812 26.4092ZM11.7747 19.7889C10.5443 19.6453 9.65736 19.4011 9.11373 19.0565C8.57009 18.7118 8.29828 18.2092 8.29828 17.5486C8.29828 16.8593 8.61301 16.3136 9.24248 15.9115C9.87195 15.5094 10.716 15.3083 11.7747 15.3083C13.1194 15.3083 14.1352 15.5812 14.8219 16.1269C15.5086 16.6439 15.9091 17.2901 16.0236 18.0656H22.118C22.1062 17.7192 22.0778 17.3841 22.0327 17.0603C21.7488 15.022 20.8044 13.4327 19.1995 12.2926C17.3397 10.9427 14.8934 10.2677 11.8605 10.2677C9.97209 10.2677 8.28397 10.555 6.79614 11.1294C5.33691 11.7038 4.19242 12.5511 3.36267 13.6712C2.53291 14.7914 2.11803 16.1843 2.11803 17.8502C2.11803 19.8607 2.81903 21.5122 4.22103 22.8046C5.65165 24.0971 7.78326 24.8869 10.6159 25.1741L12.4614 25.3465C14.0064 25.5188 15.0794 25.8204 15.6802 26.2512C16.2811 26.6533 16.5815 27.199 16.5815 27.8883C16.5815 28.6638 16.1809 29.2669 15.3798 29.6978C14.6073 30.0999 13.6202 30.3009 12.4184 30.3009C10.8448 30.3009 9.65736 30.0137 8.85622 29.4393C8.08369 28.8361 7.6402 28.1612 7.52575 27.4144H1.43134C1.44718 27.7602 1.48001 28.0953 1.52982 28.4197C1.83996 30.439 2.80856 32.0427 4.43563 33.2305C6.32403 34.6091 8.94205 35.2984 12.2897 35.2984C14.407 35.2984 16.2525 34.9969 17.8262 34.3937C19.3998 33.7618 20.6158 32.8715 21.4742 31.7226C22.3326 30.545 22.7618 29.1664 22.7618 27.5867C22.7618 25.4039 21.9606 23.6663 20.3583 22.3738C18.756 21.0813 16.51 20.2771 13.6202 19.9612L11.7747 19.7889ZM26.2094 35.5713V2.11087H35.0792V11.5027C35.3721 11.2092 35.6872 10.9416 36.0252 10.7011C37.4036 9.69102 39.0948 9.21941 41.0306 9.21941H41.331C44.2051 9.21941 46.5121 10.2682 48.1 12.4248C49.6559 14.5092 50.3581 17.4595 50.3581 21.1244V35.5713H41.4884V20.6936C41.4884 19.6165 41.1743 18.8561 40.6229 18.3025L40.6098 18.2894L40.5971 18.2757C40.0674 17.7031 39.36 17.3906 38.3696 17.3906C37.3228 17.3906 36.5521 17.7177 35.9634 18.3264C35.4022 18.935 35.0792 19.7752 35.0792 20.9521V35.5713H26.2094ZM34.0778 20.9521C34.0778 19.6705 34.4116 18.6247 35.0792 17.8147C35.1298 17.7534 35.1822 17.6934 35.2366 17.6348C36.0377 16.8019 37.0821 16.3854 38.3696 16.3854C39.5999 16.3854 40.5871 16.7875 41.331 17.5917C42.1035 18.3672 42.4898 19.4011 42.4898 20.6936V34.566H49.3567V21.1244C49.3567 17.563 48.67 14.8632 47.2966 13.025C45.9233 11.1581 43.9347 10.2247 41.331 10.2247H41.0306C39.2566 10.2247 37.7831 10.6555 36.61 11.5171C36.0297 11.9291 35.5195 12.4395 35.0792 13.0482C34.691 13.5851 34.3572 14.1984 34.0778 14.8883V3.11612H27.2109V34.566H34.0778V20.9521ZM55.3228 35.5713V17.046H52.1898V9.95181H64.1926V35.5713H55.3228ZM63.1912 10.9571H53.1912V16.0407H56.3242V34.566H63.1912V10.9571ZM55.3706 8.31847L55.356 8.3017C54.5747 7.40537 54.2069 6.29873 54.2069 5.05481C54.2069 3.79123 54.57 2.67173 55.3701 1.79207L55.3714 1.79061C56.2544 0.823685 57.5278 0.430664 58.9852 0.430664C60.4304 0.430664 61.6976 0.817775 62.5565 1.7909C63.3827 2.66652 63.7634 3.78608 63.7634 5.05481C63.7634 6.31115 63.3734 7.42351 62.5567 8.31828C61.6945 9.26561 60.4264 9.63587 58.9852 9.63587C57.5395 9.63587 56.2714 9.26381 55.386 8.33459L55.3706 8.31847ZM61.8178 7.63974C62.4473 6.95042 62.762 6.08878 62.762 5.05481C62.762 3.99212 62.4473 3.13047 61.8178 2.46988C61.2169 1.78057 60.2727 1.43591 58.9852 1.43591C57.6976 1.43591 56.7391 1.78057 56.1097 2.46988C55.5088 3.13047 55.2084 3.99212 55.2084 5.05481C55.2084 6.08878 55.5088 6.95042 56.1097 7.63974C56.7391 8.30033 57.6976 8.63062 58.9852 8.63062C60.2727 8.63062 61.2169 8.30033 61.8178 7.63974ZM78.453 35.0128L78.4465 35.0091C77.5122 34.4758 76.6945 33.8102 75.9945 33.0174V35.5713H68.541V2.11087H77.4108V11.7917C77.8963 11.3518 78.4271 10.9684 79.0036 10.6437C80.6012 9.71521 82.4066 9.26249 84.3922 9.26249C86.1172 9.26249 87.7054 9.58694 89.1384 10.2559C90.5875 10.8905 91.8237 11.8132 92.8362 13.0185C93.8418 14.187 94.6019 15.5647 95.1248 17.1362C95.6796 18.7173 95.9515 20.4229 95.9515 22.2446V23.1924C95.9515 25.014 95.6796 26.7197 95.1248 28.3007C94.5984 29.8825 93.8055 31.2893 92.7448 32.511C91.7059 33.7119 90.4473 34.6577 88.9798 35.3472L88.9718 35.351L88.9638 35.3546C87.473 36.0232 85.8143 36.3468 84.0059 36.3468C81.9462 36.3468 80.0876 35.9136 78.4596 35.0164L78.453 35.0128ZM91.9887 31.8519C92.9615 30.7317 93.6912 29.4393 94.1776 27.9745C94.6926 26.5097 94.9501 24.9157 94.9501 23.1924V22.2446C94.9501 20.5213 94.6926 18.9272 94.1776 17.4624C93.6912 15.9977 92.9902 14.7339 92.0746 13.6712C91.159 12.5798 90.0431 11.7469 88.7269 11.1725C87.4394 10.5693 85.9945 10.2677 84.3922 10.2677C82.561 10.2677 80.9301 10.6842 79.4995 11.5171C78.7123 11.9596 78.0161 12.5282 77.4108 13.2229C77.0435 13.6445 76.7097 14.1125 76.4094 14.627V3.11612H69.5424V34.566H74.9931V29.4246C75.144 29.8214 75.3156 30.1997 75.5081 30.5594C75.6597 30.8428 75.8218 31.1142 75.9945 31.3737C76.7666 32.534 77.749 33.4545 78.9416 34.1352C80.4008 34.9394 82.0889 35.3415 84.0059 35.3415C85.694 35.3415 87.2105 35.0399 88.5553 34.4368C89.9 33.8049 91.0445 32.9433 91.9887 31.8519ZM76.3423 20.8042C76.2726 21.2155 76.2377 21.6525 76.2377 22.1153V23.7094C76.2377 24.9444 76.5238 26.0071 77.0961 26.8974C77.6969 27.7591 78.4551 28.4197 79.3707 28.8792C80.2863 29.3387 81.2305 29.5685 82.2033 29.5685C83.3764 29.5685 84.3922 29.2813 85.2505 28.7069C86.1375 28.1324 86.8242 27.3282 87.3106 26.2943C87.797 25.2316 88.0402 24.0396 88.0402 22.7185C88.0402 21.3686 87.797 20.191 87.3106 19.1857C86.8242 18.1805 86.1375 17.405 85.2505 16.8593C84.3922 16.2849 83.3764 15.9977 82.2033 15.9977C81.1733 15.9977 80.2005 16.2418 79.2849 16.7301C78.5494 17.1223 77.9247 17.6535 77.4108 18.3237C77.2849 18.4878 77.1657 18.6603 77.0531 18.8411C77.0016 18.9254 76.9526 19.0116 76.9059 19.0996C76.8568 19.1922 76.8104 19.2869 76.7667 19.3836C76.5708 19.8169 76.4293 20.2904 76.3423 20.8042ZM77.9048 19.37C78.3874 18.5961 79.0023 18.0191 79.7547 17.6178C80.5266 17.2062 81.3382 17.0029 82.2033 17.0029C83.2067 17.0029 84.023 17.246 84.695 17.6957L84.711 17.7064L84.7272 17.7164C85.4397 18.1547 86.0008 18.7796 86.4098 19.6249C86.8177 20.4678 87.0388 21.4895 87.0388 22.7185C87.0388 23.9115 86.8202 24.9561 86.4028 25.8699C85.9899 26.7456 85.4237 27.3984 84.7076 27.8622L84.7013 27.8663L84.695 27.8705C84.023 28.3202 83.2067 28.5633 82.2033 28.5633C81.3941 28.5633 80.6026 28.3736 79.8186 27.9801C79.0611 27.5999 78.4333 27.0569 77.9275 26.3367C77.4824 25.6371 77.2391 24.7757 77.2391 23.7094V22.1153C77.2391 20.9664 77.4796 20.0681 77.9048 19.37ZM100.622 33.3121L100.62 33.309C98.9516 31.2733 98.2029 28.331 98.2029 24.6572V9.95181H107.073V25.0018C107.073 26.0662 107.368 26.8008 107.866 27.3208C108.361 27.8378 109.042 28.1324 110.02 28.1324C111.021 28.1324 111.756 27.8262 112.316 27.2637C112.863 26.7143 113.181 25.9424 113.181 24.8295V9.95181H122.051V35.5713H114.598V33.5295C114.126 34.0961 113.583 34.582 112.965 34.9808C111.566 35.8831 109.879 36.3037 107.96 36.3037H107.659C104.708 36.3037 102.312 35.3406 100.625 33.3152L100.622 33.3121ZM114.598 31.7526C114.794 31.3964 114.971 31.013 115.127 30.6025C115.311 30.1314 115.469 29.627 115.599 29.0894V34.566H121.05V10.9571H114.183V24.8295C114.183 26.1507 113.797 27.199 113.024 27.9745C112.252 28.75 111.25 29.1377 110.02 29.1377C108.818 29.1377 107.86 28.7643 107.144 28.0176C106.429 27.2708 106.071 26.2656 106.071 25.0018V10.9571H99.2044V24.6572C99.2044 28.2186 99.934 30.8897 101.393 32.6704C102.852 34.4224 104.941 35.2984 107.659 35.2984H107.96C109.734 35.2984 111.222 34.9107 112.423 34.1352C113.313 33.5613 114.037 32.7671 114.598 31.7526ZM127.496 35.5713V17.046H124.363V9.95181H136.366V35.5713H127.496ZM135.364 10.9571H125.364V16.0407H128.497V34.566H135.364V10.9571ZM127.544 8.31847L127.529 8.3017C126.748 7.40537 126.38 6.29873 126.38 5.05481C126.38 3.79123 126.743 2.67173 127.543 1.79207L127.545 1.79061C128.428 0.823685 129.701 0.430664 131.158 0.430664C132.604 0.430664 133.871 0.817775 134.73 1.7909C135.556 2.66652 135.937 3.78608 135.937 5.05481C135.937 6.31081 135.547 7.4229 134.731 8.31754C133.868 9.26542 132.6 9.63587 131.158 9.63587C129.713 9.63587 128.445 9.26381 127.559 8.33459L127.544 8.31847ZM133.991 7.63974C134.62 6.95042 134.935 6.08878 134.935 5.05481C134.935 3.99212 134.62 3.13047 133.991 2.46988C133.39 1.78057 132.446 1.43591 131.158 1.43591C129.871 1.43591 128.912 1.78057 128.283 2.46988C127.682 3.13047 127.382 3.99212 127.382 5.05481C127.382 6.08878 127.682 6.95042 128.283 7.63974C128.912 8.30033 129.871 8.63062 131.158 8.63062C132.446 8.63062 133.39 8.30033 133.991 7.63974ZM153.733 34.7384C156.565 34.7384 159.04 34.2932 161.158 33.4028C163.275 32.5125 165.049 31.3349 166.48 29.8701C167.91 28.3766 168.969 26.7107 169.656 24.8726C170.371 23.0057 170.728 21.1244 170.728 19.2288V18.281C170.728 16.2418 170.371 14.3031 169.656 12.4649C168.969 10.598 167.91 8.94656 166.48 7.51049C165.049 6.07442 163.275 4.93992 161.158 4.107C159.04 3.27408 156.565 2.85762 153.733 2.85762H142.102V34.7384H153.733ZM149.141 28.1468H154.119C155.578 28.1468 156.894 27.9314 158.068 27.5006C159.241 27.041 160.242 26.4092 161.072 25.605C161.902 24.772 162.531 23.7812 162.96 22.6323C163.389 21.4547 163.604 20.1623 163.604 18.7549C163.604 17.2901 163.389 15.9833 162.96 14.8344C162.531 13.6856 161.902 12.7091 161.072 11.9049C160.242 11.1007 159.241 10.4975 158.068 10.0954C156.894 9.66459 155.578 9.44918 154.119 9.44918H149.141V28.1468ZM150.142 27.1416V10.4544H154.119C155.48 10.4544 156.677 10.6553 157.723 11.0395L157.734 11.0432L157.744 11.0467C158.788 11.4048 159.66 11.9339 160.376 12.628C161.093 13.3223 161.642 14.1699 162.023 15.1874C162.402 16.2039 162.603 17.3879 162.603 18.7549C162.603 20.057 162.404 21.2297 162.021 22.2828C161.641 23.2987 161.09 24.163 160.37 24.8881C159.647 25.5866 158.767 26.1462 157.713 26.5602C156.67 26.942 155.476 27.1416 154.119 27.1416H150.142ZM141.1 1.85237V35.7436H153.733C156.668 35.7436 159.28 35.2824 161.545 34.33C163.77 33.3942 165.66 32.1454 167.195 30.5738L167.198 30.5704L167.201 30.5668C168.72 28.9813 169.854 27.2014 170.592 25.2297C171.348 23.2553 171.73 21.2532 171.73 19.2288V18.281C171.73 16.1242 171.352 14.0641 170.592 12.1081C169.854 10.1057 168.716 8.33406 167.188 6.79967C165.648 5.25419 163.753 4.04825 161.523 3.17106C159.265 2.28262 156.661 1.85237 153.733 1.85237H141.1ZM169.944 35.5713L180.949 2.11087H193.762L205.177 35.5713H195.754L193.21 27.7734H181.58L179.099 35.5713H169.944ZM180.848 26.7682H193.936L196.479 34.566H203.776L193.046 3.11612H181.673L171.329 34.566H178.368L180.848 26.7682ZM188.105 8.88912H186.535L182.712 20.909H192.025L188.105 8.88912ZM190.644 19.9038L187.379 9.89436H187.267L184.083 19.9038H190.644ZM213.692 34.8298L213.685 34.8263C211.483 33.7666 209.637 32.3779 208.164 30.6535L208.162 30.6502L208.159 30.6469C206.714 28.9251 205.623 27.0569 204.894 25.0438L204.891 25.0374L204.889 25.031C204.199 23.0443 203.846 21.1085 203.846 19.2288V18.281C203.846 16.207 204.211 14.1665 204.936 12.1645L204.938 12.1605L204.939 12.1566C205.7 10.1103 206.826 8.26314 208.312 6.61956C209.816 4.9557 211.679 3.64199 213.882 2.67165C216.122 1.65613 218.684 1.16306 221.543 1.16306C224.402 1.16306 226.963 1.65614 229.203 2.67167C231.407 3.64201 233.27 4.9557 234.774 6.61956C236.259 8.2626 237.385 10.1091 238.145 12.1546C238.901 14.1588 239.282 16.2026 239.282 18.281V19.2288C239.282 21.1143 238.913 23.0545 238.192 25.0438C237.463 27.0569 236.371 28.9251 234.927 30.6469L234.924 30.6502L234.921 30.6535C233.446 32.3805 231.583 33.7695 229.353 34.8285L229.35 34.8298L229.348 34.8311C227.1 35.882 224.489 36.3898 221.543 36.3898C218.596 36.3898 215.973 35.8819 213.7 34.8333L213.692 34.8298ZM228.796 3.59002C226.707 2.64221 224.29 2.16831 221.543 2.16831C218.796 2.16831 216.378 2.64221 214.29 3.59002C212.201 4.5091 210.456 5.74412 209.054 7.29508C207.652 8.84603 206.593 10.5837 205.878 12.508C205.191 14.4036 204.848 16.328 204.848 18.281V19.2288C204.848 20.9808 205.177 22.8046 205.835 24.7002C206.521 26.5959 207.551 28.3622 208.925 29.9993C210.298 31.6077 212.029 32.9146 214.118 33.9198C216.235 34.8963 218.71 35.3846 221.543 35.3846C224.375 35.3846 226.836 34.8963 228.925 33.9198C231.042 32.9146 232.787 31.6077 234.161 29.9993C235.534 28.3622 236.564 26.5959 237.251 24.7002C237.938 22.8046 238.281 20.9808 238.281 19.2288V18.281C238.281 16.328 237.923 14.4036 237.208 12.508C236.493 10.5837 235.434 8.84603 234.032 7.29508C232.63 5.74412 230.885 4.5091 228.796 3.59002ZM225.136 27.0953L225.14 27.0936C226.217 26.6302 227.112 25.9942 227.839 25.1884L227.845 25.1821L227.851 25.1759C228.614 24.3592 229.186 23.4159 229.57 22.3373C229.957 21.2475 230.155 20.0702 230.155 18.798C230.155 17.4392 229.943 16.2269 229.534 15.1492L229.529 15.1359L229.524 15.1225C229.14 14.0173 228.571 13.0822 227.819 12.3024L227.807 12.2905L227.796 12.2783C227.069 11.4724 226.191 10.8539 225.151 10.4209C224.118 9.99111 222.921 9.76512 221.543 9.76512C220.164 9.76512 218.967 9.99111 217.935 10.4209C216.892 10.8549 215.995 11.4768 215.235 12.29C214.508 13.0708 213.948 14.0099 213.561 15.1225L213.56 15.126L213.559 15.1295C213.173 16.2129 212.973 17.4321 212.973 18.798C212.973 20.0702 213.171 21.2475 213.559 22.3373C213.944 23.4206 214.505 24.3658 215.241 25.1823C216.003 25.9971 216.905 26.6348 217.954 27.0971C218.981 27.5499 220.171 27.7878 221.543 27.7878C222.914 27.7878 224.104 27.5499 225.132 27.0971L225.136 27.0953ZM214.504 25.8635C213.674 24.9444 213.045 23.8817 212.616 22.6754C212.187 21.4691 211.972 20.1766 211.972 18.798C211.972 17.3332 212.187 15.9977 212.616 14.7914C213.045 13.5563 213.674 12.4936 214.504 11.6033C215.363 10.6842 216.378 9.98053 217.551 9.49226C218.724 9.004 220.055 8.75987 221.543 8.75987C223.031 8.75987 224.361 9.004 225.534 9.49226C226.707 9.98053 227.709 10.6842 228.538 11.6033C229.397 12.4936 230.041 13.5563 230.47 14.7914C230.928 15.9977 231.156 17.3332 231.156 18.798C231.156 20.1766 230.942 21.4691 230.513 22.6754C230.084 23.8817 229.44 24.9444 228.581 25.8635C227.752 26.7825 226.736 27.5006 225.534 28.0176C224.361 28.5345 223.031 28.793 221.543 28.793C220.055 28.793 218.724 28.5345 217.551 28.0176C216.378 27.5006 215.363 26.7825 214.504 25.8635Z" fill="white"/>
</svg>
