<svg width="837" height="127" viewBox="0 0 837 127" fill="none" xmlns="http://www.w3.org/2000/svg">
<path d="M38.615 117.9C26.915 117.9 17.765 115.5 11.165 110.7C4.56504 105.9 1.06504 99.15 0.665039 90.45H21.965C22.365 93.05 23.915 95.4 26.615 97.5C29.415 99.5 33.565 100.5 39.065 100.5C43.265 100.5 46.715 99.8 49.415 98.4C52.215 96.9 53.615 94.8 53.615 92.1C53.615 89.7 52.565 87.8 50.465 86.4C48.365 84.9 44.615 83.85 39.215 83.25L32.765 82.65C22.865 81.65 15.415 78.9 10.415 74.4C5.51504 69.9 3.06504 64.15 3.06504 57.15C3.06504 51.35 4.51504 46.5 7.41504 42.6C10.315 38.7 14.315 35.75 19.415 33.75C24.615 31.75 30.515 30.75 37.115 30.75C47.715 30.75 56.265 33.1 62.765 37.8C69.265 42.4 72.665 49.1 72.965 57.9H51.665C51.265 55.2 49.865 52.95 47.465 51.15C45.065 49.25 41.515 48.3 36.815 48.3C33.115 48.3 30.165 49 27.965 50.4C25.765 51.8 24.665 53.7 24.665 56.1C24.665 58.4 25.615 60.15 27.515 61.35C29.415 62.55 32.515 63.4 36.815 63.9L43.265 64.5C53.365 65.6 61.215 68.4 66.815 72.9C72.415 77.4 75.215 83.45 75.215 91.05C75.215 96.55 73.715 101.35 70.715 105.45C67.715 109.45 63.465 112.55 57.965 114.75C52.465 116.85 46.015 117.9 38.615 117.9Z" fill="black"/>
<path d="M90.7647 115.35V5.85H114.765V69H111.165C111.165 60.7 112.215 53.7 114.315 48C116.415 42.3 119.515 38 123.615 35.1C127.715 32.1 132.865 30.6 139.065 30.6H140.115C149.215 30.6 156.165 33.85 160.965 40.35C165.765 46.75 168.165 56.15 168.165 68.55V115.35H144.165V67.05C144.165 62.55 142.815 58.95 140.115 56.25C137.515 53.45 134.065 52.05 129.765 52.05C125.265 52.05 121.615 53.5 118.815 56.4C116.115 59.3 114.765 63.15 114.765 67.95V115.35H90.7647Z" fill="black"/>
<path d="M192.516 115.35V33.15H216.516V115.35H192.516ZM181.566 50.85V33.15H216.516V50.85H181.566ZM201.816 25.05C197.316 25.05 193.966 23.9 191.766 21.6C189.666 19.2 188.616 16.2 188.616 12.6C188.616 8.9 189.666 5.9 191.766 3.6C193.966 1.2 197.316 0 201.816 0C206.316 0 209.616 1.2 211.716 3.6C213.916 5.9 215.016 8.9 215.016 12.6C215.016 16.2 213.916 19.2 211.716 21.6C209.616 23.9 206.316 25.05 201.816 25.05Z" fill="black"/>
<path d="M289.264 118.05C282.564 118.05 276.664 116.65 271.564 113.85C266.464 110.95 262.464 106.8 259.564 101.4C256.664 96 255.114 89.4 254.914 81.6H257.764V115.35H238.714V5.85H262.714V61.5L257.014 68.7C257.314 60.4 258.864 53.45 261.664 47.85C264.564 42.15 268.514 37.9 273.514 35.1C278.514 32.2 284.214 30.75 290.614 30.75C296.214 30.75 301.264 31.8 305.764 33.9C310.364 35.9 314.264 38.8 317.464 42.6C320.664 46.3 323.114 50.7 324.814 55.8C326.614 60.9 327.514 66.45 327.514 72.45V75.75C327.514 81.75 326.614 87.3 324.814 92.4C323.114 97.5 320.564 102 317.164 105.9C313.864 109.7 309.864 112.7 305.164 114.9C300.464 117 295.164 118.05 289.264 118.05ZM282.964 97.95C287.064 97.95 290.614 96.95 293.614 94.95C296.714 92.95 299.114 90.15 300.814 86.55C302.514 82.85 303.364 78.7 303.364 74.1C303.364 69.4 302.514 65.3 300.814 61.8C299.114 58.3 296.714 55.6 293.614 53.7C290.614 51.7 287.064 50.7 282.964 50.7C279.364 50.7 275.964 51.55 272.764 53.25C269.564 54.95 266.964 57.4 264.964 60.6C263.064 63.7 262.114 67.5 262.114 72V77.55C262.114 81.85 263.114 85.55 265.114 88.65C267.214 91.65 269.864 93.95 273.064 95.55C276.264 97.15 279.564 97.95 282.964 97.95Z" fill="black"/>
<path d="M371.933 117.9C362.433 117.9 355.133 114.85 350.033 108.75C344.933 102.55 342.383 93.25 342.383 80.85V33.15H366.383V82.05C366.383 86.45 367.633 89.95 370.133 92.55C372.633 95.15 375.983 96.45 380.183 96.45C384.483 96.45 387.983 95.1 390.683 92.4C393.383 89.7 394.733 86.05 394.733 81.45V33.15H418.733V115.35H399.683V80.7H401.333C401.333 89 400.233 95.95 398.033 101.55C395.933 107.05 392.783 111.15 388.583 113.85C384.383 116.55 379.183 117.9 372.983 117.9H371.933Z" fill="black"/>
<path d="M444.762 115.35V33.15H468.762V115.35H444.762ZM433.812 50.85V33.15H468.762V50.85H433.812ZM454.062 25.05C449.562 25.05 446.212 23.9 444.012 21.6C441.912 19.2 440.862 16.2 440.862 12.6C440.862 8.9 441.912 5.9 444.012 3.6C446.212 1.2 449.562 0 454.062 0C458.562 0 461.862 1.2 463.962 3.6C466.162 5.9 467.262 8.9 467.262 12.6C467.262 16.2 466.162 19.2 463.962 21.6C461.862 23.9 458.562 25.05 454.062 25.05Z" fill="black"/>
<path d="M513.91 115.95V93H534.31C539.41 93 544.01 92.25 548.11 90.75C552.21 89.15 555.71 86.95 558.61 84.15C561.51 81.25 563.71 77.8 565.21 73.8C566.71 69.7 567.46 65.2 567.46 60.3C567.46 55.2 566.71 50.65 565.21 46.65C563.71 42.65 561.51 39.25 558.61 36.45C555.71 33.65 552.21 31.55 548.11 30.15C544.01 28.65 539.41 27.9 534.31 27.9H513.91V4.95H532.96C542.86 4.95 551.51 6.4 558.91 9.3C566.31 12.2 572.51 16.15 577.51 21.15C582.51 26.15 586.21 31.9 588.61 38.4C591.11 44.8 592.36 51.55 592.36 58.65V61.95C592.36 68.55 591.11 75.1 588.61 81.6C586.21 88 582.51 93.8 577.51 99C572.51 104.1 566.31 108.2 558.91 111.3C551.51 114.4 542.86 115.95 532.96 115.95H513.91ZM492.31 115.95V4.95H516.91V115.95H492.31Z" fill="black"/>
<path d="M594.46 115.35L630.61 5.85H670.36L707.86 115.35H682.36L652.06 22.8L659.86 25.95H640.51L648.61 22.8L619.06 115.35H594.46ZM621.91 88.2L629.41 67.8H672.31L679.96 88.2H621.91Z" fill="black"/>
<path d="M769.956 118.2C760.056 118.2 751.406 116.5 744.006 113.1C736.706 109.6 730.656 105.05 725.856 99.45C721.056 93.75 717.456 87.6 715.056 81C712.756 74.4 711.606 68.05 711.606 61.95V58.65C711.606 51.85 712.806 45.15 715.206 38.55C717.706 31.85 721.406 25.8 726.306 20.4C731.206 15 737.306 10.7 744.606 7.5C751.906 4.2 760.356 2.55 769.956 2.55C779.556 2.55 788.006 4.2 795.306 7.5C802.606 10.7 808.706 15 813.606 20.4C818.506 25.8 822.206 31.85 824.706 38.55C827.206 45.15 828.456 51.85 828.456 58.65V61.95C828.456 68.05 827.256 74.4 824.856 81C822.456 87.6 818.856 93.75 814.056 99.45C809.256 105.05 803.156 109.6 795.756 113.1C788.456 116.5 779.856 118.2 769.956 118.2ZM769.956 95.25C775.156 95.25 779.806 94.35 783.906 92.55C788.106 90.75 791.656 88.25 794.556 85.05C797.556 81.85 799.806 78.15 801.306 73.95C802.806 69.75 803.556 65.25 803.556 60.45C803.556 55.35 802.756 50.7 801.156 46.5C799.656 42.2 797.406 38.5 794.406 35.4C791.506 32.2 788.006 29.75 783.906 28.05C779.806 26.35 775.156 25.5 769.956 25.5C764.756 25.5 760.106 26.35 756.006 28.05C751.906 29.75 748.356 32.2 745.356 35.4C742.456 38.5 740.256 42.2 738.756 46.5C737.256 50.7 736.506 55.35 736.506 60.45C736.506 65.25 737.256 69.75 738.756 73.95C740.256 78.15 742.456 81.85 745.356 85.05C748.356 88.25 751.906 90.75 756.006 92.55C760.106 94.35 764.756 95.25 769.956 95.25Z" fill="black"/>
<path fill-rule="evenodd" clip-rule="evenodd" d="M2 91.95H29.9673L30.4239 94.9178C30.6489 96.3805 31.5342 97.9869 33.7046 99.6913C35.6582 101.06 38.9409 102 44.0646 102C47.893 102 50.7349 101.36 52.7826 100.304C54.6697 99.287 55.1146 98.2525 55.1146 97.1C55.1146 95.9406 54.7095 95.1031 53.5232 94.3122L53.4762 94.2809L53.4303 94.2481C52.1171 93.3101 49.1663 92.3242 43.8585 91.732L37.4267 91.1337L37.4129 91.1323C27.1109 90.0917 18.834 87.1863 13.0732 82.0015L13.0602 81.9898L13.0472 81.9779C7.38403 76.777 4.56462 70.0723 4.56462 62.15C4.56462 55.7474 6.17524 50.1253 9.606 45.5115C12.9449 41.0214 17.5068 37.6994 23.1368 35.4916L23.1475 35.4874L23.1582 35.4833C28.8257 33.3035 35.1627 32.25 42.1146 32.25C53.2089 32.25 62.5408 34.7093 69.8012 39.9535C77.2875 45.2581 81.1301 53.0269 81.4626 62.7808L81.586 66.4H53.6449L53.2024 63.4129C52.9515 61.7195 52.1072 60.257 50.3646 58.95L50.328 58.9226L50.2922 58.8942C48.7644 57.6847 46.1262 56.8 41.8146 56.8C38.5143 56.8 36.2934 57.4302 34.8437 58.3528C33.5489 59.1768 33.1646 60.0153 33.1646 61.1C33.1646 62.2334 33.5276 62.8502 34.3836 63.3908C35.5916 64.1538 38.0287 64.9331 42.1796 65.4188L48.6162 66.0176L48.6436 66.0206C59.1446 67.1643 67.7131 70.1141 74.007 75.1717C80.4874 80.3792 83.7146 87.4602 83.7146 96.05C83.7146 102.228 82.0149 107.767 78.5392 112.517L78.527 112.533L78.5146 112.55C75.0634 117.152 70.2493 120.606 64.2645 123L64.2389 123.01L64.2131 123.02C58.2267 125.305 51.336 126.4 43.6146 126.4C31.4841 126.4 21.5134 123.918 14.106 118.531C6.58179 113.058 2.61337 105.291 2.16831 95.6108L2 91.95ZM41.8146 68.9C37.5146 68.4 34.4146 67.55 32.5146 66.35C30.6146 65.15 29.6646 63.4 29.6646 61.1C29.6646 58.7 30.7646 56.8 32.9646 55.4C35.1646 54 38.1146 53.3 41.8146 53.3C46.5146 53.3 50.0646 54.25 52.4646 56.15C54.8646 57.95 56.2646 60.2 56.6646 62.9H77.9646C77.9235 61.6939 77.8242 60.5272 77.6666 59.4C76.6744 52.3029 73.3737 46.7695 67.7646 42.8C61.2646 38.1 52.7146 35.75 42.1146 35.75C35.5146 35.75 29.6146 36.75 24.4146 38.75C19.3146 40.75 15.3146 43.7 12.4146 47.6C9.51462 51.5 8.06462 56.35 8.06462 62.15C8.06462 69.15 10.5146 74.9 15.4146 79.4C20.4146 83.9 27.8646 86.65 37.7646 87.65L44.2146 88.25C49.6146 88.85 53.3646 89.9 55.4646 91.4C57.5646 92.8 58.6146 94.7 58.6146 97.1C58.6146 99.8 57.2146 101.9 54.4146 103.4C51.7146 104.8 48.2646 105.5 44.0646 105.5C38.5646 105.5 34.4146 104.5 31.6146 102.5C28.9146 100.4 27.3646 98.05 26.9646 95.45H5.66462C5.71997 96.654 5.8347 97.8207 6.00881 98.95C7.09274 105.981 10.478 111.564 16.1646 115.7C22.7646 120.5 31.9146 122.9 43.6146 122.9C51.0146 122.9 57.4646 121.85 62.9646 119.75C68.4646 117.55 72.7146 114.45 75.7146 110.45C78.7146 106.35 80.2146 101.55 80.2146 96.05C80.2146 88.45 77.4146 82.4 71.8146 77.9C66.2146 73.4 58.3646 70.6 48.2646 69.5L41.8146 68.9ZM92.2642 123.85V7.35H123.264V40.0499C124.288 39.0278 125.389 38.0961 126.57 37.2587C131.388 33.742 137.299 32.1 144.064 32.1H145.114C155.159 32.1 163.222 35.7518 168.772 43.2605C174.21 50.5175 176.664 60.7896 176.664 73.55V123.85H145.664V72.05C145.664 68.2999 144.567 65.6523 142.639 63.7249L142.594 63.6791L142.549 63.6316C140.698 61.6379 138.226 60.55 134.764 60.55C131.105 60.55 128.412 61.6887 126.354 63.8081C124.393 65.9271 123.264 68.8524 123.264 72.95V123.85H92.2642ZM119.764 72.95C119.764 68.4878 120.931 64.8466 123.264 62.0264C123.441 61.8129 123.624 61.6041 123.814 61.4C126.614 58.5 130.264 57.05 134.764 57.05C139.064 57.05 142.514 58.45 145.114 61.25C147.814 63.95 149.164 67.55 149.164 72.05V120.35H173.164V73.55C173.164 61.15 170.764 51.75 165.964 45.35C161.164 38.85 154.214 35.6 145.114 35.6H144.064C137.864 35.6 132.714 37.1 128.614 40.1C126.586 41.5344 124.803 43.3114 123.264 45.4309C121.907 47.3001 120.741 49.4356 119.764 51.8376V10.85H95.7642V120.35H119.764V72.95ZM194.016 123.85V59.35H183.066V34.65H225.016V123.85H194.016ZM221.516 38.15H186.566V55.85H197.516V120.35H221.516V38.15ZM194.183 28.9632L194.132 28.9048C191.401 25.784 190.116 21.931 190.116 17.6C190.116 13.2006 191.385 9.30279 194.181 6.24006L194.186 6.23496C197.272 2.86839 201.722 1.5 206.816 1.5C211.867 1.5 216.296 2.84781 219.298 6.23598C222.185 9.28464 223.516 13.1826 223.516 17.6C223.516 21.9742 222.153 25.8472 219.298 28.9625C216.285 32.2609 211.853 33.55 206.816 33.55C201.763 33.55 197.331 32.2546 194.237 29.0193L194.183 28.9632ZM216.716 26.6C218.916 24.2 220.016 21.2 220.016 17.6C220.016 13.9 218.916 10.9 216.716 8.6C214.616 6.2 211.316 5 206.816 5C202.316 5 198.966 6.2 196.766 8.6C194.666 10.9 193.616 13.9 193.616 17.6C193.616 21.2 194.666 24.2 196.766 26.6C198.966 28.9 202.316 30.05 206.816 30.05C211.316 30.05 214.616 28.9 216.716 26.6ZM274.856 121.905L274.833 121.893C271.568 120.036 268.71 117.718 266.263 114.958V123.85H240.213V7.35H271.213V41.0561C272.91 39.5245 274.766 38.1896 276.78 37.0591C282.364 33.8262 288.674 32.25 295.613 32.25C301.642 32.25 307.193 33.3797 312.202 35.7088C317.266 37.9182 321.587 41.1309 325.125 45.3274C328.64 49.3959 331.297 54.1925 333.124 59.6642C335.063 65.1689 336.013 71.1075 336.013 77.45V80.75C336.013 87.0925 335.063 93.0312 333.124 98.5359C331.284 104.043 328.513 108.941 324.806 113.195C321.175 117.376 316.776 120.669 311.647 123.07L311.619 123.083L311.591 123.096C306.381 125.424 300.584 126.55 294.263 126.55C287.065 126.55 280.569 125.042 274.879 121.918L274.856 121.905ZM322.163 110.9C325.563 107 328.113 102.5 329.813 97.4C331.613 92.3 332.513 86.75 332.513 80.75V77.45C332.513 71.45 331.613 65.9 329.813 60.8C328.113 55.7 325.663 51.3 322.463 47.6C319.263 43.8 315.363 40.9 310.763 38.9C306.263 36.8 301.213 35.75 295.613 35.75C289.213 35.75 283.513 37.2 278.513 40.1C275.762 41.6407 273.329 43.6204 271.213 46.0391C269.93 47.507 268.763 49.1364 267.713 50.9276V10.85H243.713V120.35H262.763V102.449C263.291 103.831 263.891 105.148 264.563 106.4C265.093 107.387 265.66 108.332 266.263 109.235C268.962 113.275 272.395 116.48 276.563 118.85C281.663 121.65 287.563 123.05 294.263 123.05C300.163 123.05 305.463 122 310.163 119.9C314.863 117.7 318.863 114.7 322.163 110.9ZM267.479 72.435C267.235 73.8669 267.113 75.3886 267.113 77V82.55C267.113 86.85 268.113 90.55 270.113 93.65C272.213 96.65 274.863 98.95 278.063 100.55C281.263 102.15 284.563 102.95 287.963 102.95C292.063 102.95 295.613 101.95 298.613 99.95C301.713 97.95 304.113 95.15 305.813 91.55C307.513 87.85 308.363 83.7 308.363 79.1C308.363 74.4 307.513 70.3 305.813 66.8C304.113 63.3 301.713 60.6 298.613 58.7C295.613 56.7 292.063 55.7 287.963 55.7C284.363 55.7 280.963 56.55 277.763 58.25C275.193 59.6156 273.01 61.4651 271.213 63.7985C270.774 64.37 270.357 64.9705 269.963 65.6C269.783 65.8937 269.612 66.1937 269.449 66.5C269.277 66.8226 269.115 67.1522 268.962 67.4888C268.278 68.9974 267.783 70.6462 267.479 72.435ZM272.94 67.4416C274.627 64.7471 276.776 62.738 279.406 61.3409C282.103 59.9077 284.94 59.2 287.963 59.2C291.47 59.2 294.323 60.0463 296.672 61.6122L296.728 61.6492L296.784 61.6841C299.275 63.2102 301.236 65.3861 302.665 68.3292C304.091 71.2638 304.863 74.8212 304.863 79.1C304.863 83.254 304.099 86.8907 302.641 90.0724C301.197 93.1215 299.219 95.3944 296.716 97.009L296.694 97.0232L296.672 97.0378C294.323 98.6037 291.47 99.45 287.963 99.45C285.135 99.45 282.369 98.7896 279.629 97.4195C276.981 96.0958 274.787 94.2053 273.019 91.6979C271.464 89.2617 270.613 86.2628 270.613 82.55V77C270.613 72.9997 271.454 69.8722 272.94 67.4416ZM352.338 115.984L352.329 115.973C346.499 108.885 343.882 98.6414 343.882 85.85V34.65H374.882V87.05C374.882 90.756 375.914 93.3135 377.655 95.1241C379.386 96.9242 381.764 97.95 385.182 97.95C388.682 97.95 391.249 96.8836 393.207 94.9251C395.12 93.0124 396.232 90.3249 396.232 86.45V34.65H427.232V123.85H401.182V116.741C399.535 118.714 397.635 120.405 395.475 121.794C390.588 124.936 384.691 126.4 377.982 126.4H376.932C366.618 126.4 358.243 123.047 352.347 115.995L352.338 115.984ZM401.182 110.554C401.87 109.314 402.486 107.979 403.032 106.55C403.677 104.91 404.227 103.154 404.682 101.282V120.35H423.732V38.15H399.732V86.45C399.732 91.05 398.382 94.7 395.682 97.4C392.982 100.1 389.482 101.45 385.182 101.45C380.982 101.45 377.632 100.15 375.132 97.55C372.632 94.95 371.382 91.45 371.382 87.05V38.15H347.382V85.85C347.382 98.25 349.932 107.55 355.032 113.75C360.132 119.85 367.432 122.9 376.932 122.9H377.982C384.182 122.9 389.382 121.55 393.582 118.85C396.691 116.852 399.224 114.086 401.182 110.554ZM446.262 123.85V59.35H435.312V34.65H477.262V123.85H446.262ZM473.762 38.15H438.812V55.85H449.762V120.35H473.762V38.15ZM446.429 28.9632L446.378 28.9048C443.647 25.784 442.362 21.931 442.362 17.6C442.362 13.2006 443.631 9.30279 446.427 6.24006L446.432 6.23496C449.518 2.86839 453.968 1.5 459.062 1.5C464.113 1.5 468.542 2.84781 471.544 6.23598C474.431 9.28464 475.762 13.1826 475.762 17.6C475.762 21.9731 474.4 25.845 471.547 28.96C468.533 32.2602 464.1 33.55 459.062 33.55C454.009 33.55 449.577 32.2546 446.483 29.0193L446.429 28.9632ZM468.962 26.6C471.162 24.2 472.262 21.2 472.262 17.6C472.262 13.9 471.162 10.9 468.962 8.6C466.862 6.2 463.562 5 459.062 5C454.562 5 451.212 6.2 449.012 8.6C446.912 10.9 445.862 13.9 445.862 17.6C445.862 21.2 446.912 24.2 449.012 26.6C451.212 28.9 454.562 30.05 459.062 30.05C463.562 30.05 466.862 28.9 468.962 26.6ZM537.96 120.95C547.859 120.95 556.51 119.4 563.91 116.3C571.31 113.2 577.51 109.1 582.51 104C587.51 98.8 591.21 93 593.609 86.6C596.109 80.1 597.359 73.55 597.359 66.95V63.65C597.359 56.55 596.109 49.8 593.609 43.4C591.21 36.9 587.51 31.15 582.51 26.15C577.51 21.15 571.31 17.2 563.91 14.3C556.51 11.4 547.859 9.95 537.96 9.95H497.31V120.95H537.96ZM521.91 98H539.31C544.41 98 549.01 97.25 553.109 95.75C557.21 94.15 560.71 91.95 563.61 89.15C566.51 86.25 568.71 82.8 570.21 78.8C571.71 74.7 572.46 70.2 572.46 65.3C572.46 60.2 571.71 55.65 570.21 51.65C568.71 47.65 566.51 44.25 563.61 41.45C560.71 38.65 557.21 36.55 553.109 35.15C549.01 33.65 544.41 32.9 539.31 32.9H521.91V98ZM525.41 94.5V36.4H539.31C544.067 36.4 548.251 37.0994 551.907 38.4369L551.943 38.45L551.979 38.4622C555.629 39.7088 558.675 41.5511 561.178 43.9679C563.682 46.385 565.604 49.3364 566.932 52.8789C568.26 56.418 568.96 60.5404 568.96 65.3C568.96 69.8335 568.267 73.9164 566.928 77.5832C565.6 81.1203 563.674 84.1295 561.156 86.6543C558.63 89.086 555.554 91.0345 551.872 92.4759C548.224 93.8051 544.052 94.5 539.31 94.5H525.41ZM493.81 6.45V124.45H537.96C548.218 124.45 557.346 122.844 565.262 119.528C573.039 116.27 579.644 111.922 585.009 106.45L585.021 106.438L585.032 106.426C590.34 100.906 594.305 94.7085 596.881 87.8435C599.523 80.9691 600.859 73.9985 600.859 66.95V63.65C600.859 56.1405 599.538 48.9679 596.882 42.1578C594.303 35.1858 590.327 29.0175 584.984 23.6751C579.603 18.2942 572.98 14.0954 565.187 11.0413C557.293 7.948 548.193 6.45 537.96 6.45H493.81ZM594.618 123.85L633.079 7.35H677.86L717.758 123.85H684.823L675.934 96.7H635.285L626.616 123.85H594.618ZM632.728 93.2H678.471L687.359 120.35H712.86L675.36 10.85H635.609L599.46 120.35H624.06L632.728 93.2ZM658.091 30.95H652.604L639.242 72.8H671.792L658.091 30.95ZM666.963 69.3L655.554 34.45H655.16L644.033 69.3H666.963ZM747.519 121.268L747.493 121.256C739.798 117.567 733.345 112.731 728.199 106.728L728.189 106.716L728.179 106.704C723.131 100.71 719.315 94.2051 716.767 87.1961L716.759 87.174L716.751 87.1518C714.34 80.2346 713.106 73.4947 713.106 66.95V63.65C713.106 56.4287 714.382 49.3245 716.917 42.3539L716.922 42.3401L716.927 42.3264C719.585 35.2018 723.521 28.7705 728.714 23.048C733.971 17.2549 740.482 12.6809 748.182 9.30251C756.012 5.76672 764.964 4.05 774.956 4.05C784.949 4.05 793.9 5.76679 801.73 9.30258C809.431 12.681 815.941 17.2549 821.198 23.048C826.389 28.7687 830.324 35.1976 832.983 42.3195C835.625 49.2975 836.956 56.4135 836.956 63.65V66.95C836.956 73.5146 835.664 80.2698 833.145 87.1961C830.597 94.2051 826.781 100.71 821.733 106.704L821.723 106.716L821.713 106.728C816.559 112.741 810.048 117.577 802.253 121.264L802.243 121.268L802.234 121.273C794.377 124.932 785.252 126.7 774.956 126.7C764.658 126.7 755.491 124.931 747.545 121.28L747.519 121.268ZM800.306 12.5C793.006 9.2 784.556 7.55 774.956 7.55C765.356 7.55 756.906 9.2 749.606 12.5C742.306 15.7 736.206 20 731.306 25.4C726.406 30.8 722.706 36.85 720.206 43.55C717.806 50.15 716.606 56.85 716.606 63.65V66.95C716.606 73.05 717.756 79.4 720.056 86C722.456 92.6 726.056 98.75 730.856 104.45C735.656 110.05 741.706 114.6 749.006 118.1C756.406 121.5 765.056 123.2 774.956 123.2C784.856 123.2 793.456 121.5 800.756 118.1C808.156 114.6 814.256 110.05 819.056 104.45C823.856 98.75 827.456 92.6 829.856 86C832.256 79.4 833.456 73.05 833.456 66.95V63.65C833.456 56.85 832.206 50.15 829.706 43.55C827.206 36.85 823.506 30.8 818.606 25.4C813.706 20 807.606 15.7 800.306 12.5ZM787.513 94.3391L787.527 94.333C791.292 92.7195 794.42 90.5053 796.963 87.6997L796.982 87.6778L797.003 87.6562C799.669 84.8125 801.669 81.5284 803.01 77.7728C804.365 73.9785 805.056 69.8795 805.056 65.45C805.056 60.719 804.315 56.4982 802.885 52.746L802.868 52.6996L802.851 52.6528C801.509 48.8048 799.518 45.549 796.891 42.834L796.851 42.7928L796.813 42.7503C794.27 39.9444 791.201 37.7907 787.565 36.2831C783.957 34.7868 779.774 34 774.956 34C770.138 34 765.955 34.7868 762.347 36.2831C758.701 37.7945 755.567 39.9596 752.912 42.791C750.369 45.5096 748.412 48.7792 747.061 52.6528L747.056 52.665L747.052 52.6772C745.705 56.4494 745.006 60.6944 745.006 65.45C745.006 69.8795 745.697 73.9785 747.052 77.7728C748.399 81.5445 750.359 84.8356 752.93 87.6785C755.596 90.5155 758.746 92.7355 762.413 94.3453C766.004 95.9216 770.163 96.75 774.956 96.75C779.749 96.75 783.908 95.9216 787.499 94.3453L787.513 94.3391ZM750.356 90.05C747.456 86.85 745.256 83.15 743.756 78.95C742.256 74.75 741.506 70.25 741.506 65.45C741.506 60.35 742.256 55.7 743.756 51.5C745.256 47.2 747.456 43.5 750.356 40.4C753.356 37.2 756.906 34.75 761.006 33.05C765.106 31.35 769.756 30.5 774.956 30.5C780.156 30.5 784.806 31.35 788.906 33.05C793.006 34.75 796.506 37.2 799.406 40.4C802.406 43.5 804.656 47.2 806.156 51.5C807.756 55.7 808.556 60.35 808.556 65.45C808.556 70.25 807.806 74.75 806.306 78.95C804.806 83.15 802.556 86.85 799.556 90.05C796.656 93.25 793.106 95.75 788.906 97.55C784.806 99.35 780.156 100.25 774.956 100.25C769.756 100.25 765.106 99.35 761.006 97.55C756.906 95.75 753.356 93.25 750.356 90.05Z" fill="black"/>
</svg>
